<svg version="1.1" id="Layer_1" xmlns="http://www.w3.org/2000/svg" xmlns:xlink="http://www.w3.org/1999/xlink" x="0px" y="0px"
	 width="100%" viewBox="0 0 216.535 83.42" enable-background="new 0 0 216.535 83.42" xml:space="preserve">
<g>
	<path fill="#66B934" d="M31.912,39.479c0,1.374-0.366,2.515-1.097,3.42c-0.838,1.043-2.017,1.564-3.537,1.564h-3.026v-9.808h3.026
		c1.559,0,2.753,0.515,3.581,1.549C31.561,37.082,31.912,38.173,31.912,39.479 M30.231,39.538c0-2.369-1.189-3.554-3.567-3.554
		h-0.79v7.18h0.79C29.042,43.164,30.231,41.956,30.231,39.538"/>
	<path fill="#66B934" d="M38.067,37.038l-0.395,1.579c-0.458-0.322-0.838-0.482-1.141-0.482c-0.428,0-0.891,0.238-1.388,0.716v5.614
		h-1.535v-6.024l-0.336-1.476h1.052l0.585,0.658c0.819-0.536,1.476-0.804,1.973-0.804C37.292,36.819,37.687,36.892,38.067,37.038"/>
	<rect x="39.162" y="42.974" fill="#66B934" width="1.52" height="1.491"/>
	<path fill="#66B934" d="M56.005,44.464h-1.521v-4.693c0-1.111-0.332-1.667-0.995-1.667c-0.554,0-1.158,0.225-1.813,0.673v5.687
		h-1.52v-4.693c0-0.682-0.077-1.145-0.234-1.389c-0.116-0.185-0.32-0.278-0.613-0.278c-0.536,0-1.179,0.258-1.929,0.775v5.585
		h-1.536v-6.023l-0.337-1.477h1.054l0.613,0.687c0.761-0.341,1.165-0.521,1.213-0.541c0.497-0.194,0.922-0.292,1.272-0.292
		c0.721,0,1.254,0.278,1.595,0.833c1.168-0.555,2.07-0.833,2.705-0.833c1.363,0,2.046,0.979,2.046,2.938V44.464z"/>
	<path fill="#66B934" d="M63.606,41.043h-4.869c0.079,0.731,0.341,1.301,0.789,1.71c0.4,0.371,0.877,0.556,1.434,0.556
		c0.789,0,1.549-0.366,2.28-1.097l0.307,1.439c-0.984,0.61-1.944,0.915-2.88,0.915c-0.994,0-1.812-0.345-2.455-1.036
		c-0.684-0.739-1.024-1.717-1.024-2.933c0-1.177,0.35-2.12,1.052-2.831c0.643-0.632,1.418-0.948,2.325-0.948
		c0.828,0,1.529,0.273,2.106,0.818c0.623,0.605,0.935,1.404,0.935,2.398V41.043z M62.071,39.771c-0.127-1.141-0.648-1.71-1.564-1.71
		c-0.418,0-0.788,0.153-1.104,0.46c-0.316,0.307-0.519,0.724-0.606,1.25H62.071z"/>
	<path fill="#66B934" d="M71.544,44.376l-0.322,0.103h-0.774l-0.541-0.747c-0.342,0.341-0.668,0.571-0.98,0.688
		c-0.312,0.117-0.697,0.175-1.155,0.175c-0.847,0-1.518-0.358-2.01-1.073c-0.492-0.718-0.739-1.646-0.739-2.786
		c0-1.121,0.291-2.054,0.871-2.799c0.579-0.747,1.303-1.119,2.171-1.119c0.39,0,0.93,0.233,1.622,0.701v-3.143h1.535v8.523
		L71.544,44.376z M69.659,42.592v-3.699c-0.536-0.516-0.994-0.775-1.374-0.775c-0.459,0-0.854,0.216-1.184,0.644
		c-0.371,0.477-0.555,1.126-0.555,1.944c0,0.848,0.179,1.506,0.54,1.974c0.312,0.409,0.697,0.614,1.155,0.614
		C68.68,43.294,69.151,43.061,69.659,42.592"/>
	<rect x="73.312" y="42.974" fill="#66B934" width="1.521" height="1.491"/>
	<polygon fill="#66B934" points="87.275,44.464 85.68,44.464 85.68,39.815 81.631,39.815 81.631,44.464 80.052,44.464 
		80.052,34.654 81.631,34.654 81.631,38.397 85.68,38.397 85.68,34.654 87.275,34.654 	"/>
	<path fill="#66B934" d="M95.364,44.464h-1.052l-0.557-0.732c-0.603,0.352-0.97,0.551-1.096,0.6c-0.4,0.176-0.814,0.263-1.242,0.263
		c-0.722,0-1.302-0.224-1.74-0.672c-0.468-0.469-0.701-1.101-0.701-1.901c0-0.692,0.267-1.24,0.803-1.645
		c0.537-0.404,1.244-0.605,2.121-0.605c0.525,0,1.061,0.062,1.607,0.188v-0.175c0-1.111-0.429-1.667-1.286-1.667
		c-0.321,0-1.043,0.147-2.164,0.439l-0.527-1.242c1.366-0.332,2.383-0.497,3.056-0.497c0.965,0,1.633,0.277,2.003,0.833
		c0.293,0.439,0.439,1.145,0.439,2.121v3.127L95.364,44.464z M93.507,42.636v-1.505c-0.448-0.127-0.872-0.191-1.271-0.191
		c-0.556,0-0.987,0.103-1.294,0.307c-0.308,0.205-0.461,0.478-0.461,0.819s0.146,0.616,0.438,0.826
		c0.293,0.209,0.658,0.314,1.098,0.314C92.659,43.207,93.156,43.017,93.507,42.636"/>
	<path fill="#66B934" d="M103.151,44.464h-1.535v-4.517c0-1.238-0.312-1.857-0.936-1.857c-0.652,0-1.368,0.263-2.148,0.789v5.585
		h-1.534v-6.023l-0.336-1.477h1.052l0.613,0.687c1.259-0.555,2.149-0.833,2.676-0.833c1.433,0,2.148,1.038,2.148,3.114V44.464z"/>
	<path fill="#66B934" d="M109.904,42.49c0,0.721-0.314,1.277-0.949,1.667c-0.547,0.322-1.218,0.482-2.017,0.482
		c-0.713,0-1.571-0.302-2.575-0.907l0.293-1.301c0.936,0.585,1.745,0.877,2.428,0.877c0.408,0,0.731-0.082,0.964-0.248
		c0.214-0.136,0.321-0.307,0.321-0.511c0-0.303-0.33-0.629-0.994-0.98c-1.092-0.595-1.7-0.935-1.827-1.023
		c-0.662-0.478-0.994-1.024-0.994-1.638c0-0.731,0.302-1.281,0.906-1.652c0.458-0.283,1.015-0.423,1.667-0.423
		c0.419,0,0.844,0.092,1.272,0.277l1.141,0.599l-0.322,1.418c-0.721-0.643-1.398-0.965-2.031-0.965c-0.362,0-0.649,0.074-0.863,0.22
		c-0.175,0.127-0.262,0.283-0.262,0.467c0,0.293,0.33,0.59,0.993,0.892c1.004,0.468,1.622,0.785,1.856,0.951
		C109.572,41.169,109.904,41.77,109.904,42.49"/>
	<path fill="#66B934" d="M122.36,37.624c0,0.846-0.326,1.553-0.981,2.118c-0.69,0.615-1.621,0.922-2.79,0.922h-1.053v3.801h-1.579
		v-9.81h2.632c1.197,0,2.143,0.312,2.833,0.935C122.047,36.136,122.36,36.813,122.36,37.624 M120.768,37.651
		c0-1.13-0.883-1.695-2.646-1.695h-0.543v3.405h0.543C119.885,39.361,120.768,38.792,120.768,37.651"/>
	<path fill="#66B934" d="M129.422,41.043h-4.869c0.08,0.731,0.343,1.301,0.791,1.71c0.397,0.371,0.877,0.556,1.433,0.556
		c0.791,0,1.55-0.366,2.28-1.097l0.308,1.439c-0.985,0.61-1.946,0.915-2.881,0.915c-0.994,0-1.813-0.345-2.455-1.036
		c-0.683-0.739-1.024-1.717-1.024-2.933c0-1.177,0.351-2.12,1.053-2.831c0.645-0.632,1.418-0.948,2.324-0.948
		c0.828,0,1.531,0.273,2.106,0.818c0.623,0.605,0.935,1.404,0.935,2.398V41.043z M127.887,39.771
		c-0.127-1.141-0.647-1.71-1.563-1.71c-0.42,0-0.788,0.153-1.104,0.46c-0.315,0.307-0.518,0.724-0.606,1.25H127.887z"/>
	<path fill="#66B934" d="M135.006,44.348c-0.547,0.097-0.965,0.146-1.258,0.146c-0.681,0-1.231-0.161-1.651-0.483
		c-0.517-0.39-0.774-0.994-0.774-1.812v-3.802h-1.052V37.14h1.052v-1.608l1.522-0.439v2.047h2.002v1.257h-2.002v3.977
		c0,0.507,0.354,0.76,1.065,0.76c0.185,0,0.506-0.038,0.963-0.117L135.006,44.348z"/>
	<path fill="#66B934" d="M142.447,41.043h-4.869c0.08,0.731,0.343,1.301,0.791,1.71c0.398,0.371,0.877,0.556,1.433,0.556
		c0.791,0,1.55-0.366,2.281-1.097l0.307,1.439c-0.985,0.61-1.946,0.915-2.881,0.915c-0.994,0-1.813-0.345-2.455-1.036
		c-0.683-0.739-1.024-1.717-1.024-2.933c0-1.177,0.353-2.12,1.054-2.831c0.644-0.632,1.418-0.948,2.323-0.948
		c0.828,0,1.531,0.273,2.106,0.818c0.623,0.605,0.935,1.404,0.935,2.398V41.043z M140.912,39.771
		c-0.127-1.141-0.647-1.71-1.563-1.71c-0.418,0-0.788,0.153-1.104,0.46c-0.315,0.307-0.518,0.724-0.606,1.25H140.912z"/>
	<path fill="#66B934" d="M148.631,37.038l-0.395,1.579c-0.459-0.322-0.837-0.482-1.14-0.482c-0.431,0-0.892,0.238-1.388,0.716v5.614
		h-1.537v-6.024l-0.336-1.476h1.056l0.584,0.658c0.817-0.536,1.474-0.804,1.972-0.804C147.856,36.819,148.25,36.892,148.631,37.038"
		/>
	<polygon fill="#66B934" points="161.264,44.464 159.45,44.464 156.19,40.415 155.313,41.512 155.313,44.464 153.703,44.464 
		153.703,34.64 155.271,34.64 155.271,39.494 159.348,34.64 161.03,34.64 157.125,39.304 	"/>
	<path fill="#66B934" d="M168.295,44.464h-1.052l-0.558-0.732c-0.604,0.352-0.969,0.551-1.096,0.6
		c-0.398,0.176-0.812,0.263-1.242,0.263c-0.723,0-1.303-0.224-1.74-0.672c-0.467-0.469-0.7-1.101-0.7-1.901
		c0-0.692,0.267-1.24,0.802-1.645c0.538-0.404,1.245-0.605,2.122-0.605c0.524,0,1.062,0.062,1.606,0.188v-0.175
		c0-1.111-0.428-1.667-1.287-1.667c-0.319,0-1.043,0.147-2.163,0.439l-0.526-1.242c1.366-0.332,2.385-0.497,3.055-0.497
		c0.967,0,1.633,0.277,2.004,0.833c0.293,0.439,0.438,1.145,0.438,2.121v3.127L168.295,44.464z M166.438,42.636v-1.505
		c-0.448-0.127-0.873-0.191-1.271-0.191c-0.555,0-0.987,0.103-1.295,0.307c-0.308,0.205-0.459,0.478-0.459,0.819
		s0.144,0.616,0.437,0.826c0.293,0.209,0.658,0.314,1.099,0.314C165.59,43.207,166.086,43.017,166.438,42.636"/>
	<path fill="#66B934" d="M176.32,44.464h-1.065l-0.603-0.731c-0.584,0.575-1.436,0.862-2.557,0.862
		c-0.701,0-1.256-0.262-1.668-0.789c-0.408-0.527-0.613-1.281-0.613-2.266v-4.576h1.535v4.562c0,1.208,0.358,1.812,1.069,1.812
		c0.593,0,1.271-0.263,2.031-0.789v-5.585h1.521V42.9L176.32,44.464z"/>
	<path fill="#66B934" d="M181.875,34.61l-0.145,1.374c-0.527-0.185-0.912-0.277-1.156-0.277c-0.576,0-0.863,0.287-0.863,0.862v0.57
		h1.552v1.258h-1.552v6.067h-1.52v-6.067h-1.021V37.14h1.021v-0.38c0-0.818,0.254-1.422,0.76-1.813
		c0.42-0.32,0.978-0.482,1.668-0.482C180.9,34.464,181.32,34.514,181.875,34.61"/>
	<path fill="#66B934" d="M193.25,44.464h-1.521v-4.693c0-1.111-0.331-1.667-0.995-1.667c-0.554,0-1.16,0.225-1.812,0.673v5.687
		h-1.52v-4.693c0-0.682-0.078-1.145-0.234-1.389c-0.116-0.185-0.319-0.278-0.612-0.278c-0.537,0-1.181,0.258-1.931,0.775v5.585
		h-1.534v-6.023l-0.339-1.477h1.054l0.614,0.687c0.761-0.341,1.164-0.521,1.214-0.541c0.498-0.194,0.922-0.292,1.272-0.292
		c0.719,0,1.25,0.278,1.592,0.833c1.17-0.555,2.07-0.833,2.705-0.833c1.363,0,2.047,0.979,2.047,2.938V44.464z"/>
	<path fill="#66B934" d="M200.836,44.464h-1.052l-0.554-0.732c-0.604,0.352-0.973,0.551-1.1,0.6
		c-0.398,0.176-0.812,0.263-1.24,0.263c-0.723,0-1.301-0.224-1.74-0.672c-0.469-0.469-0.702-1.101-0.702-1.901
		c0-0.692,0.269-1.24,0.804-1.645c0.536-0.404,1.243-0.605,2.12-0.605c0.526,0,1.062,0.062,1.608,0.188v-0.175
		c0-1.111-0.43-1.667-1.286-1.667c-0.322,0-1.041,0.147-2.162,0.439l-0.528-1.242c1.364-0.332,2.383-0.497,3.057-0.497
		c0.963,0,1.631,0.277,2,0.833c0.293,0.439,0.44,1.145,0.44,2.121v3.127L200.836,44.464z M198.98,42.636v-1.505
		c-0.446-0.127-0.873-0.191-1.271-0.191c-0.557,0-0.989,0.103-1.293,0.307c-0.31,0.205-0.463,0.478-0.463,0.819
		s0.146,0.616,0.438,0.826c0.293,0.209,0.658,0.314,1.097,0.314C198.131,43.207,198.629,43.017,198.98,42.636"/>
	<path fill="#66B934" d="M208.57,44.464h-1.532v-4.517c0-1.238-0.313-1.857-0.937-1.857c-0.653,0-1.371,0.263-2.149,0.789v5.585
		h-1.535v-6.023l-0.336-1.477h1.052l0.614,0.687c1.258-0.555,2.147-0.833,2.676-0.833c1.433,0,2.147,1.038,2.147,3.114V44.464z"/>
	<path fill="#66B934" d="M216.449,44.464h-1.534v-4.517c0-1.238-0.312-1.857-0.937-1.857c-0.652,0-1.367,0.263-2.148,0.789v5.585
		h-1.534v-6.023l-0.334-1.477h1.05l0.614,0.687c1.258-0.555,2.149-0.833,2.676-0.833c1.433,0,2.147,1.038,2.147,3.114V44.464z"/>
	<path fill="#66B934" d="M2.911,0.02c7.721-0.492,11.212,8.519,4.542,9.085C7.385,9.102,7.298,9.012,7.291,8.942
		c0.974-5.204-0.613-6.731-6.814-6.814c-0.143-0.003-0.21-0.101-0.214-0.159C0.167,1.714,0.113,1.27,0.315,1.156
		C1.181,0.777,2.485,0.087,2.911,0.02"/>
	<path fill="#66B934" d="M40.71,8.293c0.439-0.221,1.149-0.11,1.296,0c0.229,0.2,0.282,0.688,0.163,0.811
		c-9.447,6.707-26.456,9.744-41.853,9.246c-0.176-0.482-0.249-1.165-0.163-1.784C16.274,14.863,28.632,13.796,40.71,8.293"/>
	<path fill="#66B934" d="M40.871,12.509c0.218-0.066,0.447-0.066,0.648,0c0.383,0.222,0.835,0.998,0.65,1.138
		c-7.88,4.303-18.837,7.092-24.171,13.95C7.964,40.496,32.547,68.667,35.681,79.185c0.053,0.161,0.035,0.415-0.074,0.597
		c-0.727,0.979-1.793,0.543-2.36-0.109c-3.46-6.058-6.921-12.113-10.381-18.171C6.338,32.186,10.563,24.046,40.871,12.509"/>
	<path fill="#66B934" d="M1.072,48.706c10.351-0.131,24.194,23.688,25.793,32.769c0.266,1.503-0.169,1.821-1.135,1.946
		c-0.302-0.252-0.448-0.597-0.501-0.65c-6.627-11.479-9.151-28.808-24.968-30.982C-0.175,50.253,0.053,49.334,1.072,48.706"/>
	<path fill="#66B934" d="M6.684,32.759c0.524,1.117,0.818,2.363,0.818,3.679c0,4.174-2.945,7.658-6.871,8.492l-0.079,0.037
		c0,0-0.071,0.042-0.097,0.058c-0.024,0.014-0.075,0.055-0.096,0.073c-0.032,0.028-0.085,0.081-0.113,0.113
		c-0.033,0.039-0.09,0.121-0.115,0.166C0.108,45.42,0.06,45.502,0.045,45.55C0.025,45.61,0.001,45.735,0,45.799
		s0.009,0.155,0.017,0.211c0.006,0.054,0.036,0.164,0.054,0.215c0.012,0.035,0.049,0.097,0.067,0.131
		c0.022,0.038,0.078,0.117,0.108,0.15c0.03,0.033,0.085,0.087,0.122,0.115c0.034,0.026,0.108,0.08,0.147,0.099
		c0.035,0.017,0.104,0.053,0.14,0.067c0.036,0.014,0.114,0.027,0.151,0.035c0.029,0.007,0.092,0.016,0.122,0.017
		c0.016,0,0.043,0,0.071-0.001c4.293-0.525,7.621-4.182,7.621-8.617C8.62,36.151,7.893,34.251,6.684,32.759"/>
	<rect x="80.651" y="49.446" fill="#666666" width="0.58" height="4.5"/>
	<path fill="#666666" d="M82.915,53.945v-4.5h0.634l1.442,2.277c0.334,0.528,0.594,1.001,0.808,1.462l0.012-0.007
		c-0.052-0.601-0.066-1.148-0.066-1.849v-1.883h0.547v4.5h-0.587l-1.429-2.283c-0.314-0.501-0.613-1.015-0.841-1.503l-0.02,0.008
		c0.033,0.567,0.047,1.107,0.047,1.855v1.923H82.915z"/>
	<polygon fill="#666666" points="88.829,49.939 87.461,49.939 87.461,49.446 90.793,49.446 90.793,49.939 89.417,49.939 
		89.417,53.946 88.829,53.946 	"/>
	<polygon fill="#666666" points="94.292,51.835 92.543,51.835 92.543,53.459 94.49,53.459 94.49,53.946 91.961,53.946 
		91.961,49.446 94.391,49.446 94.391,49.934 92.543,49.934 92.543,51.355 94.292,51.355 	"/>
	<path fill="#666666" d="M95.913,49.507c0.295-0.06,0.715-0.094,1.115-0.094c0.623,0,1.024,0.114,1.303,0.367
		c0.227,0.201,0.353,0.508,0.353,0.855c0,0.594-0.373,0.988-0.847,1.149v0.02c0.346,0.119,0.554,0.44,0.66,0.907
		c0.148,0.628,0.256,1.062,0.348,1.236h-0.602c-0.072-0.134-0.174-0.515-0.299-1.075c-0.133-0.621-0.375-0.855-0.902-0.875h-0.547
		v1.95h-0.582V49.507z M96.495,51.556h0.595c0.62,0,1.014-0.34,1.014-0.854c0-0.581-0.421-0.835-1.037-0.841
		c-0.279,0-0.477,0.026-0.572,0.053V51.556z"/>
	<path fill="#666666" d="M100.174,53.945v-4.5h0.635l1.441,2.277c0.334,0.528,0.594,1.001,0.807,1.462l0.013-0.007
		c-0.052-0.601-0.066-1.148-0.066-1.849v-1.883h0.547v4.5h-0.587l-1.429-2.283c-0.312-0.501-0.613-1.015-0.84-1.503l-0.021,0.008
		c0.033,0.567,0.047,1.107,0.047,1.855v1.923H100.174z"/>
	<rect x="105.232" y="49.446" fill="#666666" width="0.582" height="4.5"/>
	<path fill="#666666" d="M107.417,53.238c0.262,0.16,0.643,0.294,1.041,0.294c0.596,0,0.941-0.314,0.941-0.768
		c0-0.421-0.24-0.661-0.845-0.895c-0.737-0.26-1.19-0.641-1.19-1.275c0-0.701,0.582-1.222,1.455-1.222
		c0.461,0,0.795,0.107,0.994,0.22l-0.158,0.475c-0.146-0.081-0.447-0.214-0.853-0.214c-0.615,0-0.85,0.367-0.85,0.674
		c0,0.421,0.274,0.628,0.895,0.868c0.761,0.294,1.148,0.661,1.148,1.322c0,0.694-0.514,1.302-1.576,1.302
		c-0.434,0-0.906-0.134-1.148-0.294L107.417,53.238z"/>
	<polygon fill="#666666" points="112.312,49.939 110.941,49.939 110.941,49.446 114.273,49.446 114.273,49.939 112.898,49.939 
		112.898,53.946 112.312,53.946 	"/>
	<rect x="117.222" y="51.921" fill="#666666" width="1.646" height="0.435"/>
	<path fill="#666666" d="M125.752,53.746c-0.262,0.093-0.774,0.247-1.383,0.247c-0.68,0-1.242-0.174-1.681-0.594
		c-0.387-0.375-0.627-0.975-0.627-1.676c0.005-1.342,0.927-2.324,2.435-2.324c0.522,0,0.929,0.114,1.121,0.207l-0.14,0.474
		c-0.239-0.106-0.539-0.193-0.995-0.193c-1.093,0-1.808,0.681-1.808,1.809c0,1.142,0.687,1.816,1.735,1.816
		c0.379,0,0.642-0.053,0.774-0.12V52.05h-0.914v-0.468h1.481V53.746z"/>
	<path fill="#666666" d="M128.035,52.531l-0.466,1.415h-0.603l1.529-4.5h0.702l1.535,4.5h-0.623l-0.479-1.415H128.035z
		 M129.512,52.077l-0.442-1.296c-0.101-0.293-0.166-0.56-0.233-0.821h-0.013c-0.067,0.267-0.14,0.541-0.228,0.815l-0.438,1.302
		H129.512z"/>
	<path fill="#666666" d="M131.982,53.238c0.259,0.16,0.642,0.294,1.041,0.294c0.595,0,0.941-0.314,0.941-0.768
		c0-0.421-0.242-0.661-0.849-0.895c-0.733-0.26-1.188-0.641-1.188-1.275c0-0.701,0.582-1.222,1.455-1.222
		c0.461,0,0.795,0.107,0.996,0.22l-0.16,0.475c-0.148-0.081-0.449-0.214-0.855-0.214c-0.612,0-0.848,0.367-0.848,0.674
		c0,0.421,0.274,0.628,0.894,0.868c0.762,0.294,1.149,0.661,1.149,1.322c0,0.694-0.515,1.302-1.576,1.302
		c-0.434,0-0.907-0.134-1.147-0.294L131.982,53.238z"/>
	<polygon fill="#666666" points="136.875,49.939 135.509,49.939 135.509,49.446 138.839,49.446 138.839,49.939 137.464,49.939 
		137.464,53.946 136.875,53.946 	"/>
	<path fill="#666666" d="M140.006,49.507c0.295-0.06,0.716-0.094,1.115-0.094c0.621,0,1.022,0.114,1.303,0.367
		c0.229,0.201,0.354,0.508,0.354,0.855c0,0.594-0.375,0.988-0.847,1.149v0.02c0.347,0.119,0.555,0.44,0.661,0.907
		c0.145,0.628,0.255,1.062,0.347,1.236h-0.603c-0.073-0.134-0.174-0.515-0.301-1.075c-0.131-0.621-0.373-0.855-0.9-0.875h-0.546
		v1.95h-0.583V49.507z M140.589,51.556h0.594c0.621,0,1.015-0.34,1.015-0.854c0-0.581-0.42-0.835-1.037-0.841
		c-0.279,0-0.479,0.026-0.571,0.053V51.556z"/>
	<path fill="#666666" d="M148.131,51.649c0,1.549-0.94,2.37-2.088,2.37c-1.189,0-2.023-0.921-2.023-2.283
		c0-1.429,0.888-2.364,2.091-2.364C147.339,49.372,148.131,50.314,148.131,51.649 M144.641,51.723c0,0.961,0.521,1.823,1.435,1.823
		c0.923,0,1.442-0.848,1.442-1.87c0-0.895-0.467-1.829-1.436-1.829C145.12,49.847,144.641,50.735,144.641,51.723"/>
	<polygon fill="#666666" points="151.885,51.835 150.135,51.835 150.135,53.459 152.084,53.459 152.084,53.946 149.553,53.946 
		149.553,49.446 151.985,49.446 151.985,49.934 150.135,49.934 150.135,51.355 151.885,51.355 	"/>
	<path fill="#666666" d="M153.508,53.945v-4.5h0.634l1.44,2.277c0.336,0.528,0.594,1.001,0.81,1.462l0.013-0.007
		c-0.054-0.601-0.065-1.148-0.065-1.849v-1.883h0.547v4.5h-0.589l-1.428-2.283c-0.313-0.501-0.615-1.015-0.841-1.503l-0.021,0.008
		c0.033,0.567,0.048,1.107,0.048,1.855v1.923H153.508z"/>
	<polygon fill="#666666" points="159.422,49.939 158.054,49.939 158.054,49.446 161.388,49.446 161.388,49.939 160.011,49.939 
		160.011,53.946 159.422,53.946 	"/>
	<polygon fill="#666666" points="164.883,51.835 163.136,51.835 163.136,53.459 165.084,53.459 165.084,53.946 162.556,53.946 
		162.556,49.446 164.985,49.446 164.985,49.934 163.136,49.934 163.136,51.355 164.883,51.355 	"/>
	<path fill="#666666" d="M166.507,49.507c0.293-0.06,0.715-0.094,1.114-0.094c0.621,0,1.022,0.114,1.304,0.367
		c0.225,0.201,0.353,0.508,0.353,0.855c0,0.594-0.373,0.988-0.847,1.149v0.02c0.347,0.119,0.552,0.44,0.66,0.907
		c0.147,0.628,0.254,1.062,0.348,1.236h-0.6c-0.074-0.134-0.175-0.515-0.302-1.075c-0.135-0.621-0.375-0.855-0.901-0.875h-0.55v1.95
		h-0.579V49.507z M167.086,51.556h0.597c0.621,0,1.015-0.34,1.015-0.854c0-0.581-0.423-0.835-1.035-0.841
		c-0.28,0-0.479,0.026-0.576,0.053V51.556z"/>
	<path fill="#666666" d="M174.633,51.649c0,1.549-0.94,2.37-2.09,2.37c-1.188,0-2.022-0.921-2.022-2.283
		c0-1.429,0.889-2.364,2.088-2.364C173.836,49.372,174.633,50.314,174.633,51.649 M171.139,51.723c0,0.961,0.523,1.823,1.438,1.823
		c0.919,0,1.44-0.848,1.44-1.87c0-0.895-0.469-1.829-1.436-1.829C171.621,49.847,171.139,50.735,171.139,51.723"/>
	<polygon fill="#666666" points="176.055,49.445 176.635,49.445 176.635,53.459 178.559,53.459 178.559,53.945 176.055,53.945 	"/>
	<path fill="#666666" d="M183.459,51.649c0,1.549-0.94,2.37-2.09,2.37c-1.189,0-2.023-0.921-2.023-2.283
		c0-1.429,0.888-2.364,2.091-2.364C182.664,49.372,183.459,50.314,183.459,51.649 M179.967,51.723c0,0.961,0.521,1.823,1.437,1.823
		c0.921,0,1.44-0.848,1.44-1.87c0-0.895-0.467-1.829-1.436-1.829C180.447,49.847,179.967,50.735,179.967,51.723"/>
	<path fill="#666666" d="M188.307,53.746c-0.262,0.093-0.774,0.247-1.383,0.247c-0.68,0-1.24-0.174-1.68-0.594
		c-0.388-0.375-0.63-0.975-0.63-1.676c0.007-1.342,0.927-2.324,2.437-2.324c0.521,0,0.929,0.114,1.121,0.207l-0.138,0.474
		c-0.241-0.106-0.54-0.193-0.995-0.193c-1.097,0-1.812,0.681-1.812,1.809c0,1.142,0.688,1.816,1.737,1.816
		c0.379,0,0.642-0.053,0.776-0.12V52.05h-0.916v-0.468h1.481V53.746z"/>
	<rect x="189.861" y="49.446" fill="#666666" width="0.582" height="4.5"/>
	<polygon fill="#666666" points="194.455,51.835 192.708,51.835 192.708,53.459 194.656,53.459 194.656,53.946 192.126,53.946 
		192.126,49.446 194.556,49.446 194.556,49.934 192.708,49.934 192.708,51.355 194.455,51.355 	"/>
	<rect x="196.216" y="51.982" fill="#666666" width="1.652" height="0.436"/>
	<polygon fill="#666666" points="201.133,49.367 203.568,49.367 203.568,49.856 201.717,49.856 201.717,51.358 203.429,51.358 
		203.429,51.842 201.717,51.842 201.717,53.887 201.133,53.887 	"/>
	<polygon fill="#666666" points="207.339,51.797 205.586,51.797 205.586,53.422 207.539,53.422 207.539,53.912 205.002,53.912 
		205.002,49.401 207.439,49.401 207.439,49.891 205.586,49.891 205.586,51.315 207.339,51.315 	"/>
	<path fill="#666666" d="M209.015,49.466c0.255-0.053,0.653-0.089,1.064-0.086c0.58,0.005,0.961,0.107,1.241,0.334
		c0.235,0.176,0.38,0.445,0.385,0.797c0.003,0.434-0.281,0.812-0.756,0.984l0.001,0.013c0.43,0.109,0.937,0.465,0.942,1.133
		c0.005,0.387-0.147,0.68-0.373,0.899c-0.31,0.285-0.82,0.416-1.557,0.41c-0.401-0.002-0.708-0.031-0.904-0.059L209.015,49.466z
		 M209.639,53.467c0.113,0.022,0.281,0.029,0.49,0.031c0.6,0.005,1.152-0.213,1.146-0.867c-0.005-0.614-0.536-0.872-1.172-0.875
		l-0.479-0.004L209.639,53.467z M209.616,51.312l0.528,0.004c0.616,0.003,0.977-0.316,0.97-0.75
		c-0.005-0.525-0.406-0.735-0.998-0.739c-0.269-0.001-0.422,0.017-0.515,0.035L209.616,51.312z"/>
	<path fill="#666666" d="M216.535,53.68c-0.256,0.091-0.764,0.244-1.36,0.244c-0.668,0-1.223-0.172-1.656-0.586
		c-0.38-0.368-0.617-0.96-0.617-1.65c0.005-1.322,0.912-2.288,2.4-2.288c0.512,0,0.913,0.112,1.102,0.205l-0.139,0.465
		c-0.234-0.104-0.53-0.192-0.979-0.192c-1.073,0-1.777,0.673-1.777,1.783c0,1.124,0.673,1.789,1.708,1.789
		c0.373,0,0.63-0.053,0.761-0.12v-1.32h-0.899v-0.461h1.458V53.68z"/>
</g>
</svg>
