<?xml version="1.0" standalone="no"?>
<!DOCTYPE svg PUBLIC "-//W3C//DTD SVG 20010904//EN"
 "http://www.w3.org/TR/2001/REC-SVG-20010904/DTD/svg10.dtd">
<svg version="1.0" xmlns="http://www.w3.org/2000/svg"
 width="310.000000pt" height="310.000000pt" viewBox="0 0 310.000000 310.000000"
 preserveAspectRatio="xMidYMid meet">
<metadata>
Created by potrace 1.11, written by Peter Selinger 2001-2013
</metadata>
<g transform="translate(0.000000,310.000000) scale(0.100000,-0.100000)"
fill="#000000" stroke="none">
<path d="M266 3005 c-48 -17 -74 -41 -60 -55 5 -5 36 -12 69 -15 151 -13 197
-71 171 -213 -6 -30 -4 -32 16 -28 103 19 137 88 94 186 -24 53 -36 65 -101
98 -73 37 -136 46 -189 27z"/>
<path d="M1560 2713 c-66 -29 -239 -92 -263 -97 -14 -2 -35 -9 -46 -16 -12 -6
-21 -9 -21 -6 0 3 -15 0 -32 -5 -51 -15 -174 -43 -240 -54 -18 -3 -55 -10 -83
-15 -27 -5 -70 -12 -95 -15 -25 -3 -56 -8 -70 -10 -48 -8 -175 -24 -230 -30
-25 -2 -70 -6 -100 -10 -30 -3 -77 -8 -105 -11 -27 -2 -55 -5 -62 -6 -17 -2
-23 -35 -9 -53 10 -13 35 -16 156 -16 141 0 258 6 330 17 19 3 54 7 76 9 43 5
144 24 266 51 15 3 29 5 30 4 2 -1 15 3 31 9 15 6 38 13 50 15 102 22 199 56
317 113 63 31 117 59 120 63 3 4 20 15 38 24 34 18 40 30 20 43 -22 13 -42 12
-78 -4z"/>
<path d="M1533 2555 c-29 -13 -53 -21 -53 -17 0 4 -4 2 -8 -3 -4 -6 -52 -31
-107 -55 -521 -230 -706 -419 -708 -724 -1 -150 38 -323 104 -460 11 -22 19
-44 19 -49 0 -28 330 -649 392 -739 11 -16 16 -28 13 -28 -3 0 2 -12 13 -27
10 -16 36 -59 56 -96 20 -37 46 -84 57 -105 31 -57 55 -73 85 -60 29 14 27 35
-13 127 -58 133 -111 231 -255 471 -216 358 -353 668 -389 874 -28 166 15 330
113 423 102 99 197 163 348 235 58 28 179 87 270 131 91 45 168 80 173 79 14
-4 7 15 -11 31 -24 22 -36 21 -99 -8z"/>
<path d="M437 1844 c-3 -4 -1 -16 4 -27 21 -38 14 -138 -13 -197 -33 -74 -118
-157 -174 -172 -48 -13 -70 -43 -50 -70 27 -37 174 30 229 104 63 86 77 211
34 312 -13 31 -26 53 -30 50z"/>
<path d="M212 1288 c-19 -24 -19 -86 1 -93 6 -2 43 -13 81 -25 119 -37 194
-80 272 -155 122 -119 204 -257 324 -545 29 -69 80 -184 115 -255 49 -102 67
-131 83 -132 41 -3 38 60 -7 194 -16 48 -39 111 -52 138 -12 28 -23 52 -24 55
-4 16 -106 208 -155 290 -98 168 -271 368 -395 460 -84 62 -217 99 -243 68z"/>
</g>
</svg>
